<?xml version="1.0" encoding="utf-8"?>
<!-- Generator: Adobe Illustrator 18.1.1, SVG Export Plug-In . SVG Version: 6.00 Build 0)  -->
<!DOCTYPE svg PUBLIC "-//W3C//DTD SVG 1.1//EN" "http://www.w3.org/Graphics/SVG/1.1/DTD/svg11.dtd">
<svg version="1.1" id="Layer_1" xmlns="http://www.w3.org/2000/svg" xmlns:xlink="http://www.w3.org/1999/xlink" x="0px" y="0px"
	 width="200px" height="200px" viewBox="0 0 200 200" enable-background="new 0 0 200 200" xml:space="preserve">
<g>
	<path fill="#6CB33F" d="M48.2,39l36.8,36.8c0.3,0.3,0.6,0.7,0.9,1c3.5,3.5,8.3,5.1,13,4.6c3.6-0.3,7.1-1.9,9.9-4.7
		c0.3-0.3,0.5-0.5,0.7-0.8l36.9-37c6.3-6.3,6.3-16.5,0-22.8c-6.3-6.3-16.5-6.3-22.8,0L97.4,42.4L71,16.1c-6.3-6.3-16.5-6.3-22.8,0
		c-3.4,3.4-4.9,7.9-4.7,12.3C43.8,32.3,45.3,36,48.2,39z"/>
	<path fill="#6CB33F" d="M185.3,124L159,97.8l26.3-26.4c6.3-6.3,6.3-16.5,0-22.8c-3.4-3.4-7.9-4.9-12.3-4.7
		c-3.8,0.2-7.6,1.8-10.5,4.7l-36.7,36.8c-0.3,0.3-0.7,0.6-1,0.9c-3.5,3.5-5.1,8.3-4.6,12.9c0.3,3.6,1.9,7.2,4.7,9.9
		c0.2,0.2,0.5,0.5,0.8,0.7l37,36.9c6.3,6.3,16.5,6.3,22.8,0C191.7,140.5,191.7,130.3,185.3,124z"/>
	<path fill="#6CB33F" d="M153.5,161.1l-36.8-36.8c-0.3-0.3-0.6-0.6-0.9-1c-3.5-3.5-8.3-5.1-13-4.6c-3.6,0.3-7.1,1.9-9.9,4.7
		c-0.2,0.3-0.5,0.5-0.7,0.8l-36.9,37c-6.3,6.3-6.3,16.5,0,22.8c6.3,6.3,16.5,6.3,22.8,0l26.3-26.3l26.3,26.3
		c6.3,6.3,16.5,6.3,22.8,0c3.4-3.4,4.9-7.9,4.7-12.3C158,167.7,156.4,164,153.5,161.1z"/>
	<path fill="#009DDC" d="M78.7,117.2c0.3-0.3,0.7-0.6,1-0.9l0,0l0,0c3.6-3.6,5.5-8.4,5.5-13.2c0-0.6,0-1.2-0.1-1.8
		c-0.4-4.2-2.2-8.3-5.4-11.5l-1.8,1.8h0l1.8-1.9v0c-0.2-0.2-0.5-0.4-0.8-0.7l-37-36.9l0,0c-3.6-3.6-8.4-5.5-13.2-5.5
		c-4.8,0-9.6,1.8-13.2,5.5c-3.6,3.6-5.5,8.4-5.5,13.2c0,4.8,1.8,9.6,5.5,13.3l0,0l24.5,24.4l-24.5,24.5c-3.6,3.6-5.5,8.4-5.5,13.2
		c0,4.8,1.8,9.6,5.5,13.3c3.6,3.6,8.4,5.5,13.2,5.5c0.4,0,0.7,0,1.1,0l0,0c4.4-0.3,8.8-2.1,12.1-5.5L78.7,117.2L78.7,117.2z"/>
	<polygon fill="#009DDC" points="15.4,52.2 15.4,52.2 15.4,52.2 	"/>
	<polygon fill="#009DDC" points="85,101.3 85,101.3 85,101.3 	"/>
</g>
</svg>
