<?xml version="1.0" encoding="utf-8"?>
<!-- Generator: Adobe Illustrator 18.1.1, SVG Export Plug-In . SVG Version: 6.00 Build 0)  -->
<!DOCTYPE svg PUBLIC "-//W3C//DTD SVG 1.1//EN" "http://www.w3.org/Graphics/SVG/1.1/DTD/svg11.dtd">
<svg id="Layer_1" data-name="Layer 1" xmlns="http://www.w3.org/2000/svg" viewBox="0 0 24.8 24.8"><defs><style>.cls-1{fill:#00a1df;}</style></defs><title>mulesoft_logo</title><path class="cls-1" d="M585.1,15.7a12.4,12.4,0,1,0,12.5,12.4A12.4,12.4,0,0,0,585.1,15.7Zm0,23.9a11.4,11.4,0,1,1,11.4-11.4,11.4,11.4,0,0,1-11.4,11.4h0Z" transform="translate(-572.8 -15.7)"/><path class="cls-1" d="M581.9,33.7a5.72,5.72,0,0,1-3.2-5.2,6.11,6.11,0,0,1,1-3.3l4.1,6.1h2.5l4.1-6.1a6.11,6.11,0,0,1,1,3.3,5.67,5.67,0,0,1-2.8,5l0.8,3a9.45,9.45,0,0,0,5.1-8.3,9.16,9.16,0,0,0-4.6-8l-4.8,7.4-4.7-7.4a9.2,9.2,0,0,0-4.6,8.1,9.33,9.33,0,0,0,5.4,8.5Z" transform="translate(-572.8 -15.7)"/></svg>